<?xml version="1.0" encoding="UTF-8"?> <svg xmlns="http://www.w3.org/2000/svg" width="73" height="50" viewBox="0 0 73 50" fill="none"><path d="M13.1747 35.4297C12.9187 35.4303 12.6733 35.5323 12.4924 35.7134C12.3116 35.8946 12.2099 36.14 12.2096 36.396C12.2171 36.6468 12.3221 36.8849 12.5021 37.0596C12.6822 37.2344 12.9233 37.3322 13.1742 37.3322C13.4252 37.3322 13.6662 37.2344 13.8463 37.0596C14.0264 36.8849 14.1313 36.6468 14.1388 36.396C14.1385 36.1402 14.0369 35.8949 13.8562 35.7139C13.6755 35.5328 13.4305 35.4306 13.1747 35.4297ZM3.19543 36.29L3.08292 36.3307L1.62108 36.8318V38.7402H0V40.0212H1.57391V44.128C1.57391 46.0844 2.24035 46.8816 3.87182 46.8816C4.28856 46.8816 4.68496 46.8283 5.08309 46.7219L5.14497 46.7041L5.12853 45.3799L5.01385 45.4167C4.69534 45.5323 4.44305 45.5868 4.24615 45.5868C3.48234 45.5868 3.19586 45.154 3.19586 43.9895V40.0212H5.06794V38.7402H3.19586L3.19543 36.29ZM19.7165 38.5528C18.6044 38.5528 17.6675 39.0838 17.0439 40.0402V38.7411H15.5604V50.0013H17.1824V45.6344C17.7683 46.4306 18.6091 46.8664 19.6547 46.8664C21.7059 46.8664 23.0288 45.1852 23.0288 42.5865C23.0288 40.1739 21.7003 38.5528 19.7165 38.5528ZM10.3129 38.5992C9.37251 38.5992 8.61433 39.1076 8.13917 40.0389V38.7407H6.657V46.7405H8.27895V42.7254C8.27895 41.0394 8.98607 40.1146 10.2674 40.1146C10.4522 40.1146 10.634 40.1428 10.8525 40.2042L10.9572 40.2345L11.0096 38.655L10.3129 38.5992ZM12.3654 38.7407V46.7405H13.9882V38.7407H12.3654ZM19.3266 39.8952C20.5808 39.8952 21.3316 40.9356 21.3316 42.6791C21.3316 44.4551 20.5383 45.5548 19.2648 45.5548C17.9808 45.5548 17.1824 44.4599 17.1824 42.6934C17.1824 40.9944 18.0241 39.8952 19.3266 39.8952Z" fill="black"></path><path d="M37.6617 34.9219V39.8267C37.064 38.9941 36.2323 38.5522 35.1591 38.5522C33.1779 38.5522 31.8472 40.1867 31.8472 42.6149C31.8472 45.1175 33.1944 46.8658 35.1292 46.8658C36.2747 46.8658 37.1657 46.3582 37.7863 45.3719V46.7394H39.2853V34.9223L37.6617 34.9219ZM49.8631 35.4291C49.6071 35.4291 49.3617 35.5307 49.1807 35.7117C48.9997 35.8927 48.898 36.1381 48.898 36.3941C48.898 36.65 48.9997 36.8955 49.1807 37.0765C49.3617 37.2575 49.6071 37.3591 49.8631 37.3591C50.119 37.3591 50.3645 37.2575 50.5454 37.0765C50.7264 36.8955 50.8281 36.65 50.8281 36.3941C50.8281 36.1381 50.7264 35.8927 50.5454 35.7117C50.3645 35.5307 50.119 35.4291 49.8631 35.4291ZM27.7668 38.5522C26.778 38.5522 25.9095 38.7396 25.1115 39.1243L25.0617 39.1473L25.0803 40.5321L25.2058 40.4606C25.9696 40.034 26.6893 39.8158 27.3488 39.8158C28.5228 39.8158 29.1949 40.4896 29.1949 41.665V41.7325H28.2675C25.5987 41.7325 24.127 42.7001 24.127 44.4558C24.127 45.8653 25.1881 46.8498 26.7061 46.8498C27.8235 46.8498 28.6886 46.411 29.3039 45.5844V46.7399H30.771V41.8969C30.771 39.6795 29.7618 38.5522 27.7668 38.5522ZM62.9382 38.5522C60.4996 38.5522 58.9841 40.1569 58.9841 42.7412C58.9841 45.3235 60.4996 46.9272 62.9382 46.9272C65.3871 46.9272 66.9091 45.3235 66.9091 42.7408C66.9091 40.1573 65.3871 38.5522 62.9382 38.5522ZM72.0749 38.5985C71.138 38.5985 70.3776 39.107 69.9007 40.0379V38.7396H68.4203V46.7394H70.0422V42.7248C70.0422 41.0388 70.7476 40.114 72.0307 40.114C72.2159 40.114 72.396 40.1417 72.6141 40.2036L72.7188 40.2339L72.7729 38.6543L72.0749 38.5985ZM55.5178 38.6474C53.7591 38.6474 52.5773 39.5073 52.5773 40.7908C52.5773 41.9173 53.351 42.5119 54.7782 43.2056C55.6771 43.65 56.1501 43.9097 56.1501 44.5328C56.1501 45.1711 55.5697 45.5861 54.6753 45.5861C54.0378 45.5861 53.3342 45.4044 52.6383 45.0643L52.5189 45.0045L52.4656 46.4153L52.5219 46.4378C53.1873 46.7014 53.8968 46.8362 54.6125 46.8351C56.5971 46.8351 57.8793 45.8878 57.8793 44.4246C57.8793 43.203 57.0662 42.5859 55.6615 41.9303C54.6315 41.4482 54.1988 41.1621 54.1988 40.6515C54.1988 40.1659 54.6796 39.8496 55.4213 39.8496C56.0921 39.8496 56.7477 39.9976 57.367 40.2923L57.4812 40.3464L57.5548 38.9672L57.492 38.9426C56.8161 38.7474 56.1548 38.6474 55.5178 38.6474ZM40.2763 38.7396L44.1975 46.7394L48.2277 38.7396H46.5322L44.2312 43.357L42.1056 38.7396H40.2763ZM49.0525 38.7396V46.7394H50.6762V38.7396H49.0525ZM62.9538 39.8327C64.3234 39.8327 65.2071 40.9678 65.2071 42.7248C65.2071 44.4709 64.3234 45.5996 62.9538 45.5996C61.6066 45.5996 60.7013 44.4446 60.7013 42.7248C60.7013 40.9973 61.6066 39.8327 62.9538 39.8327ZM35.5191 39.8496C36.8615 39.8496 37.6608 40.9163 37.6608 42.7101C37.6608 44.4173 36.8329 45.5243 35.549 45.5243C34.3143 45.5243 33.5462 44.4446 33.5462 42.7097C33.5462 40.9722 34.3204 39.8496 35.5191 39.8496ZM28.3601 42.8754H29.1945V43.3644C29.1945 44.7436 28.3653 45.6325 27.0805 45.6325C26.2972 45.6325 25.7485 45.1162 25.7485 44.3775C25.7485 43.409 26.6763 42.8754 28.3601 42.8754Z" fill="black"></path><path d="M28.2518 18.9901C28.2511 19.5255 28.0381 20.0389 27.6597 20.4176C27.2812 20.7963 26.768 21.0096 26.2325 21.0106C25.6968 21.0103 25.1832 20.7972 24.8045 20.4184C24.4258 20.0395 24.213 19.5258 24.2129 18.9901C24.2207 18.4596 24.4368 17.9535 24.8147 17.5811C25.1926 17.2087 25.7018 17 26.2323 17C26.7628 17 27.2721 17.2087 27.6499 17.5811C28.0278 17.9535 28.244 18.4596 28.2518 18.9901Z" fill="black"></path><path d="M52.2518 18.9901C52.2511 19.5255 52.0381 20.0389 51.6597 20.4176C51.2812 20.7963 50.768 21.0096 50.2325 21.0106C49.6968 21.0103 49.1832 20.7972 48.8045 20.4184C48.4258 20.0395 48.213 19.5258 48.2129 18.9901C48.2207 18.4596 48.4368 17.9535 48.8147 17.5811C49.1926 17.2087 49.7018 17 50.2323 17C50.7628 17 51.2721 17.2087 51.6499 17.5811C52.0278 17.9535 52.244 18.4596 52.2518 18.9901Z" fill="black"></path><path fill-rule="evenodd" clip-rule="evenodd" d="M38.4257 2C32.0781 2 26.3433 3.59858 21.8206 6.55383L14.2129 6.56076C14.2129 6.56076 16.0079 8.9569 16.5904 11.3734C15.1083 13.3891 14.2189 15.8679 14.2189 18.557C14.2189 25.256 19.6716 30.697 26.3727 30.697C30.2013 30.697 33.6153 28.9205 35.8457 26.147L38.43 30.0106L41.04 26.1142C42.2249 27.6248 43.7544 28.8299 45.5003 29.6285C48.4517 30.9848 51.7518 31.1172 54.7967 29.9955C61.0845 27.6747 64.3085 20.6723 61.9868 14.3905C61.5858 13.3073 61.0308 12.2875 60.3389 11.3626C60.9119 8.9305 62.7281 6.50277 62.7281 6.50277L54.621 6.49714C50.0728 3.5592 44.5474 2 38.4257 2ZM50.1999 6.46574C48.8937 6.5025 47.602 6.7502 46.3748 7.19925C43.3287 8.32656 40.9053 10.5691 39.5473 13.5187C38.9337 14.8494 38.5866 16.2563 38.4763 17.6718C38.0249 11.4662 32.9033 6.5432 26.6133 6.419C30.0935 4.93034 34.0903 4.12109 38.4239 4.12109C42.786 4.12109 46.7236 4.9074 50.1999 6.46574ZM17.2129 18.6988C17.2129 13.3496 21.5646 9 26.9126 9C32.2575 9 36.6079 13.3496 36.6079 18.6988C36.6079 24.042 32.257 28.3924 26.9126 28.3924C21.5651 28.3924 17.2129 24.0424 17.2129 18.6988ZM47.1199 9.64307C48.1858 9.24884 49.3129 9.0458 50.4494 9.04328C54.4035 9.03462 58.1316 11.4624 59.5787 15.3831C61.4292 20.3948 58.8552 25.9855 53.8387 27.8433C52.6439 28.2869 51.3729 28.4891 50.0993 28.4383C48.8258 28.3875 47.575 28.0846 46.4192 27.5473C45.261 27.018 44.2195 26.264 43.355 25.3291C42.4905 24.3941 41.8203 23.2967 41.3833 22.1007V22.0989C40.9386 20.9052 40.7349 19.6352 40.7839 18.3623C40.8329 17.0894 41.1337 15.8388 41.6689 14.6829C42.1991 13.5241 42.9538 12.482 43.8895 11.6169C44.8251 10.7518 45.9231 10.0809 47.1199 9.64307Z" fill="black"></path><path fill-rule="evenodd" clip-rule="evenodd" d="M20.2129 18.9984C20.2129 15.6921 22.9068 13 26.2195 13C29.5235 13 32.2131 15.6921 32.2131 18.9984C32.2131 22.3063 29.5235 25.0002 26.2195 25.0002C22.9068 25.0002 20.2129 22.3063 20.2129 18.9984ZM44.5577 18.9984C44.5577 15.6921 47.2503 13 50.56 13C53.8675 13 56.5574 15.6921 56.5574 18.9984C56.5574 22.3063 53.867 25.0002 50.56 25.0002C47.2503 25.0002 44.5577 22.3063 44.5577 18.9984ZM22.2129 18.932C22.2129 16.7643 23.9807 15 26.1544 15C28.3181 15 30.0803 16.7643 30.0803 18.932C30.0803 21.1005 28.3181 22.8691 26.1544 22.8691C23.9807 22.8691 22.2129 21.1005 22.2129 18.932ZM46.5603 18.932C46.5603 16.7643 48.3255 15 50.4949 15C52.6625 15 54.4251 16.7643 54.4251 18.932C54.4251 21.1005 52.6625 22.8691 50.4949 22.8691C48.3259 22.8691 46.5603 21.1005 46.5603 18.932Z" fill="black"></path></svg> 