<?xml version="1.0" encoding="UTF-8"?> <svg xmlns="http://www.w3.org/2000/svg" width="81" height="32" viewBox="0 0 81 32" fill="none"><path d="M25.9707 31.2051H20.3791L10.3681 18.9844L5.46832 24.9602V31.2051H0.933594V0H5.46832V18.1581L20.3407 0H25.8746L13.1735 15.5833L25.9707 31.2051Z" fill="black"></path><path d="M33.5606 0H29.4678V31.2051H33.5606V0Z" fill="black"></path><path d="M49.5666 28.2652C50.6042 28.2652 51.6226 28.0538 52.5833 27.6311C53.5057 27.2276 54.3511 26.6703 55.0621 25.9594C55.773 25.2484 56.3303 24.403 56.7145 23.4807C57.5216 21.5399 57.5216 19.3494 56.7145 17.4087C56.3303 16.4864 55.773 15.641 55.0621 14.93C54.3511 14.219 53.5057 13.6426 52.5833 13.2391C51.6418 12.8356 50.6042 12.6242 49.5666 12.6242C48.529 12.6242 47.5106 12.8356 46.5498 13.2391C45.6275 13.6426 44.7821 14.1998 44.0711 14.9108C43.3602 15.6217 42.7837 16.4672 42.3802 17.3895C41.9575 18.3503 41.7461 19.3879 41.7461 20.4255C41.7461 21.4631 41.9575 22.5007 42.3802 23.4614C43.168 25.3253 44.6668 26.8048 46.5498 27.6119C47.4914 28.0538 48.529 28.2652 49.5666 28.2652ZM61.4606 9.74197V31.1666H57.3102V28.6687C56.2918 29.7063 55.0621 30.5325 53.6978 31.109C51.5842 31.9929 49.2399 32.2234 46.9918 31.7815C44.7436 31.3396 42.6684 30.2443 41.0544 28.6303C39.9976 27.5734 39.1713 26.3245 38.5757 24.9602C37.9608 23.5383 37.6533 22.0203 37.6533 20.4831C37.6533 18.9459 37.9608 17.4087 38.5757 16.006C39.7478 13.2583 41.9575 11.0486 44.7244 9.85726C46.1463 9.24238 47.6835 8.93494 49.2207 8.93494C50.7579 8.91573 52.2759 9.22317 53.6978 9.79961C55.0428 10.3568 56.2726 11.1831 57.291 12.2399V9.74197H61.4606Z" fill="black"></path><path d="M77.2745 8.93494C78.216 8.93494 79.1384 9.0118 80.0607 9.20395L79.4842 12.874C78.7541 12.6434 77.9855 12.5281 77.2169 12.5474C75.6797 12.5474 74.4499 12.7587 73.5276 13.2007C72.7014 13.5657 71.9904 14.1038 71.414 14.7763C70.9528 15.3143 70.6261 15.9292 70.434 16.6017V16.6209C70.2418 17.3703 70.1458 18.1389 70.1458 18.9267V31.2243H66.053V9.7804H70.1458V11.7019C70.1842 11.6827 70.3379 11.529 70.6454 11.2407C71.0489 10.8757 71.4908 10.5682 71.9712 10.2992C72.6629 9.91491 73.3931 9.58825 74.1617 9.35767C75.1801 9.05023 76.2177 8.91573 77.2745 8.93494Z" fill="black"></path></svg> 