<?xml version="1.0" encoding="UTF-8"?> <svg xmlns="http://www.w3.org/2000/svg" width="156" height="121" viewBox="0 0 156 121" fill="none"> <g clip-path="url(#clip0_2_4814)"> <path fill-rule="evenodd" clip-rule="evenodd" d="M153.846 91.8476C150.829 95.647 143.438 98.3573 143.438 98.3573L88.4548 118.072V103.533L128.919 89.1408C133.51 87.4985 134.216 85.1769 130.483 83.9583C126.758 82.7362 120.012 83.0863 115.417 84.7356L88.4548 94.2148V79.1259L90.0088 78.6006C90.0088 78.6006 97.7999 75.8483 108.755 74.6367C119.71 73.4321 133.125 74.8013 143.655 78.7862C155.523 82.5296 156.859 88.0483 153.846 91.8476ZM93.6886 67.0905V29.9093C93.6886 25.5427 92.8818 21.5227 88.7775 20.3847C85.6345 19.3797 83.6841 22.2931 83.6841 26.6562V119.767L58.5288 111.797V0.778576C69.2244 2.76055 84.8066 7.44584 93.1835 10.2647C114.487 17.5658 121.71 26.6527 121.71 47.1272C121.71 67.0835 109.369 74.6472 93.6886 67.0905ZM12.3717 102.013C0.188689 98.5884 -1.83889 91.4519 3.71414 87.3409C8.84622 83.5451 17.5739 80.6877 17.5739 80.6877L53.6423 67.8854V82.4805L27.6872 91.7531C23.1024 93.3954 22.3973 95.7205 26.1227 96.9391C29.8516 98.1577 36.6008 97.811 41.1927 96.1652L53.6423 91.655V104.713C52.853 104.853 51.9725 104.993 51.1587 105.13C38.7056 107.161 25.4422 106.313 12.3717 102.013ZM145.834 107.794C147.409 107.794 148.886 108.404 149.998 109.528C151.11 110.634 151.724 112.112 151.724 113.681C151.724 115.257 151.11 116.727 149.998 117.834C148.886 118.951 147.409 119.56 145.834 119.56C144.259 119.56 142.785 118.951 141.67 117.834C140.558 116.727 139.947 115.257 139.947 113.681C139.947 110.438 142.585 107.794 145.834 107.794ZM140.937 113.681C140.937 114.987 141.445 116.216 142.371 117.133C143.294 118.065 144.529 118.569 145.834 118.569C148.538 118.569 150.731 116.377 150.731 113.681C150.731 112.371 150.226 111.142 149.296 110.221C148.373 109.29 147.139 108.789 145.834 108.789C144.529 108.789 143.294 109.29 142.371 110.221C141.445 111.142 140.937 112.371 140.937 113.681ZM147.612 110.512C148.258 110.795 148.584 111.342 148.584 112.119C148.584 112.518 148.5 112.854 148.328 113.117C148.205 113.306 148.03 113.46 147.833 113.593C147.988 113.684 148.124 113.793 148.226 113.919C148.366 114.101 148.447 114.392 148.458 114.787L148.489 115.624C148.5 115.848 148.514 116.02 148.549 116.125C148.584 116.279 148.651 116.377 148.735 116.409L148.823 116.451V116.545V116.689V116.832H148.679H147.637H147.553L147.511 116.759C147.475 116.689 147.451 116.608 147.426 116.503C147.409 116.409 147.391 116.244 147.381 115.992L147.328 114.952C147.314 114.591 147.191 114.367 146.96 114.248C146.816 114.182 146.577 114.15 146.255 114.15H144.469V116.689V116.832H144.322H143.473H143.329V116.689V110.431V110.288H143.473H146.374C146.872 110.288 147.29 110.361 147.612 110.512L147.612 110.512ZM144.469 113.149H146.286C146.651 113.149 146.942 113.082 147.149 112.945C147.339 112.809 147.43 112.56 147.43 112.2C147.43 111.807 147.3 111.552 147.026 111.415C146.876 111.342 146.665 111.3 146.399 111.3H144.469V113.149Z" fill="black"></path> </g> <defs> <clipPath id="clip0_2_4814"> <rect width="38.9016" height="30.0603" fill="white" transform="scale(4.01012)"></rect> </clipPath> </defs> </svg> 