<?xml version="1.0" encoding="UTF-8"?> <svg xmlns="http://www.w3.org/2000/svg" width="322" height="97" viewBox="0 0 322 97" fill="none"> <path d="M48.2879 0C21.6198 0 0 21.6391 0 48.3317C0 75.0254 21.6198 96.6628 48.2879 96.6628C74.9588 96.6628 96.5763 75.0254 96.5763 48.3317C96.5763 21.6408 74.9588 0.00230859 48.2873 0.00230859L48.2879 0ZM70.4324 69.7082C69.5674 71.128 67.7107 71.5781 66.2922 70.7066C54.9547 63.7751 40.6823 62.2052 23.8738 66.049C22.2541 66.4184 20.6395 65.4026 20.2705 63.7808C19.8997 62.159 20.9105 60.543 22.5343 60.1737C40.9285 55.9674 56.7065 57.7785 69.4348 65.5642C70.8533 66.4357 71.3031 68.2884 70.4324 69.7082ZM76.3427 56.548C75.2529 58.321 72.9349 58.8808 71.1647 57.79C58.185 49.8046 38.3994 47.4919 23.0469 52.1565C21.0558 52.7584 18.9529 51.6353 18.3486 49.6459C17.7489 47.653 18.8716 45.5521 20.8592 44.9461C38.396 39.6202 60.1974 42.2 75.103 51.3681C76.8732 52.4589 77.4325 54.779 76.3427 56.5486V56.548ZM76.8501 42.8441C61.2872 33.5919 35.6103 32.7411 20.7514 37.255C18.3653 37.9794 15.8421 36.6311 15.119 34.2429C14.3959 31.8535 15.7417 29.3296 18.1295 28.6036C35.1865 23.4207 63.5418 24.4221 81.4597 35.0688C83.6104 36.3437 84.3139 39.1181 83.0396 41.2633C81.771 43.4115 78.9917 44.1196 76.8524 42.8441H76.8501ZM131.375 44.6171C123.037 42.6271 121.555 41.2304 121.555 38.2956C121.555 35.523 124.162 33.6571 128.042 33.6571C131.802 33.6571 135.527 35.074 139.436 37.9909C139.552 38.0792 139.702 38.1144 139.846 38.0913C139.996 38.0694 140.123 37.9892 140.209 37.8685L144.28 32.1247C144.447 31.8881 144.401 31.562 144.176 31.3814C139.523 27.6455 134.287 25.8292 128.164 25.8292C119.163 25.8292 112.872 31.2365 112.872 38.9732C112.872 47.2697 118.298 50.2074 127.673 52.475C135.648 54.3144 136.997 55.8554 136.997 58.6096C136.997 61.6627 134.276 63.5615 129.893 63.5615C125.027 63.5615 121.054 61.9166 116.614 58.0728C116.504 57.9747 116.354 57.9343 116.216 57.9401C116.066 57.9516 115.933 58.0209 115.841 58.1305L111.274 63.5673C111.084 63.7982 111.107 64.1329 111.326 64.3291C116.493 68.9463 122.847 71.3819 129.709 71.3819C139.408 71.3819 145.675 66.0779 145.675 57.8651C145.693 50.9352 141.547 47.0972 131.393 44.6247L131.375 44.6171ZM167.622 36.387C163.418 36.387 159.97 38.0446 157.121 41.4411V37.6181C157.121 37.3162 156.879 37.0703 156.579 37.0703H149.112C148.812 37.0703 148.57 37.3162 148.57 37.6181V80.0969C148.57 80.397 148.812 80.6452 149.112 80.6452H156.579C156.879 80.6452 157.121 80.397 157.121 80.0969V66.6897C159.97 69.8813 163.418 71.4454 167.622 71.4454C175.435 71.4454 183.346 65.4257 183.346 53.9179C183.358 42.4078 175.446 36.3864 167.627 36.3864L167.622 36.387ZM174.662 53.9179C174.662 59.7754 171.058 63.8674 165.892 63.8674C160.789 63.8674 156.937 59.5907 156.937 53.9179C156.937 48.2445 160.789 43.969 165.892 43.969C170.972 43.9684 174.662 48.1516 174.662 53.9173V53.9179ZM203.614 36.387C193.552 36.387 185.67 44.1416 185.67 54.0432C185.67 63.8386 193.5 71.5089 203.493 71.5089C213.59 71.5089 221.495 63.7808 221.495 53.9179C221.495 44.0885 213.642 36.3881 203.614 36.3881V36.387ZM203.614 63.9251C198.263 63.9251 194.227 59.6196 194.227 53.915C194.227 48.1845 198.125 44.0261 203.493 44.0261C208.879 44.0261 212.938 48.33 212.938 54.0403C212.938 59.7696 209.017 63.9251 203.614 63.9251ZM242.98 37.0703H234.763V28.6636C234.763 28.3623 234.521 28.1164 234.221 28.1164H226.754C226.454 28.1164 226.206 28.3623 226.206 28.6636V37.0703H222.62C222.32 37.0703 222.078 37.3162 222.078 37.6181V44.04C222.078 44.3413 222.32 44.5877 222.62 44.5877H226.206V61.2067C226.206 67.919 229.545 71.3242 236.136 71.3242C238.811 71.3242 241.031 70.7701 243.124 69.5812C243.297 69.4888 243.401 69.3042 243.401 69.1079V62.9901C243.401 62.8055 243.303 62.6265 243.142 62.5284C242.98 62.4245 242.778 62.4188 242.611 62.5053C241.175 63.2268 239.786 63.5615 238.229 63.5615C235.836 63.5615 234.763 62.4707 234.763 60.0351V44.5906H242.98C243.28 44.5906 243.522 44.3447 243.522 44.0429V37.6215C243.534 37.3197 243.291 37.0738 242.986 37.0738L242.98 37.0703ZM271.603 37.1032V36.0707C271.603 33.0332 272.768 31.6786 275.375 31.6786C276.931 31.6786 278.183 31.988 279.584 32.4554C279.757 32.5097 279.936 32.4826 280.074 32.3793C280.218 32.276 280.299 32.1103 280.299 31.9349V25.6382C280.299 25.3975 280.149 25.1845 279.913 25.1135C278.436 24.6732 276.545 24.2212 273.708 24.2212C266.818 24.2212 263.168 28.1078 263.168 35.4566V37.038H259.581C259.281 37.038 259.033 37.2839 259.033 37.5852V44.04C259.033 44.3413 259.281 44.5877 259.581 44.5877H263.168V70.2161C263.168 70.5219 263.415 70.7644 263.715 70.7644H271.177C271.482 70.7644 271.725 70.5219 271.725 70.2161V44.5894H278.696L289.375 70.2161C288.164 72.9056 286.97 73.4423 285.344 73.4423C284.03 73.4423 282.64 73.0499 281.227 72.2707C281.095 72.2015 280.933 72.1899 280.795 72.2303C280.651 72.2823 280.53 72.3861 280.472 72.5247L277.941 78.0826C277.819 78.3481 277.923 78.654 278.177 78.7925C280.818 80.2238 283.199 80.8356 286.146 80.8356C291.658 80.8356 294.709 78.2615 297.39 71.3473L310.341 37.8512C310.41 37.6827 310.387 37.4922 310.283 37.3428C310.185 37.1944 310.018 37.105 309.839 37.105H302.066C301.83 37.105 301.622 37.2533 301.547 37.472L293.584 60.2314L284.866 37.457C284.785 37.2452 284.583 37.105 284.358 37.105H271.603V37.1032ZM255.008 37.0703H247.541C247.241 37.0703 246.993 37.3162 246.993 37.6181V70.2161C246.993 70.5219 247.241 70.7644 247.541 70.7644H255.008C255.308 70.7644 255.556 70.5219 255.556 70.2161V37.6204C255.556 37.3185 255.314 37.0726 255.008 37.0726V37.0703ZM251.318 22.2266C248.36 22.2266 245.961 24.6229 245.961 27.5831C245.961 30.5451 248.36 32.9443 251.318 32.9443C254.276 32.9443 256.669 30.5451 256.669 27.5831C256.669 24.6235 254.27 22.2266 251.318 22.2266ZM316.718 47.552C313.766 47.552 311.465 45.177 311.465 42.293C311.465 39.409 313.795 37.0069 316.747 37.0069C319.699 37.0069 322 39.3812 322 42.263C322 45.147 319.671 47.552 316.718 47.552ZM316.747 37.5297C314.054 37.5297 312.019 39.671 312.019 42.293C312.019 44.9138 314.043 47.0262 316.718 47.0262C319.411 47.0262 321.446 44.8867 321.446 42.263C321.446 39.6421 319.423 37.5297 316.747 37.5297ZM317.912 42.8037L319.399 44.8861H318.142L316.805 42.9757H315.657V44.8861H314.608V39.3662H317.064C318.35 39.3662 319.192 40.0225 319.192 41.1271C319.198 42.0321 318.673 42.585 317.918 42.8037H317.912ZM317.024 40.3133H315.657V42.0592H317.024C317.704 42.0592 318.114 41.7251 318.114 41.1854C318.114 40.6175 317.704 40.3133 317.024 40.3133Z" fill="#131313"></path> </svg> 