<?xml version="1.0" encoding="UTF-8"?> <svg xmlns="http://www.w3.org/2000/svg" width="180" height="32" viewBox="0 0 180 32" fill="none"><path fill-rule="evenodd" clip-rule="evenodd" d="M6.40857 15.9001C5.38161 14.2704 5.15826 12.1033 5.15826 10.4399C5.15826 4.77889 10.2145 0 15.485 0H31.9969L25.5884 6.46465H15.3728C11.2639 6.46567 6.29639 10.6296 6.40857 15.9001ZM12.705 11.266C13.1292 9.90452 14.458 8.16266 15.7094 7.24686C13.3189 7.24686 10.6286 8.38702 8.57467 11.266H12.705ZM16.0102 8.0515C15.073 8.87857 14.045 10.1279 13.5218 11.266H18.4782C17.953 10.1289 16.926 8.87857 16.0102 8.0515ZM8.16164 12.1043C7.54669 13.2098 7.24584 14.4611 7.13366 15.7104H11.7667C11.7667 14.4611 11.9911 13.2098 12.4021 12.1043H8.16164ZM13.2077 12.1043C12.7957 13.2098 12.605 14.4611 12.4938 15.7104H19.5051C19.394 14.4611 19.2033 13.2098 18.7913 12.1043H13.2077ZM23.3346 11.266C21.3683 8.38702 18.6781 7.24686 16.3223 7.24686C17.5389 8.16266 18.7902 9.90452 19.3144 11.266H23.3346ZM19.6163 12.1043C20.0405 13.2098 20.2292 14.4611 20.2292 15.7104H24.8623C24.7848 14.4611 24.4717 13.2098 23.8353 12.1043H19.6163ZM8.57467 20.7575C10.6286 23.7588 13.3189 24.7868 15.7094 24.7868C14.458 23.8384 13.1292 22.0955 12.705 20.7575H8.57467ZM16.0102 24.0617C16.926 23.2346 17.953 21.8946 18.4772 20.7575H13.5208C14.045 21.8946 15.072 23.2356 16.0102 24.0617ZM12.4031 20.0426C11.9921 18.7913 11.7677 17.5644 11.7677 16.4355H7.13468C7.24584 17.6521 7.54771 18.9055 8.16266 20.0426H12.4031ZM18.7902 20.0426C19.2022 18.9055 19.393 17.6521 19.5041 16.4355H12.4928C12.604 17.6521 12.7947 18.9055 13.2067 20.0426H18.7902ZM19.3144 20.7575C18.7902 22.0955 17.5389 23.8384 16.3223 24.7868C18.6781 24.7868 21.3683 23.7588 23.3346 20.7575H19.3144ZM23.8363 20.0426C24.4727 18.9055 24.7858 17.6521 24.8633 16.4355H20.2292C20.2222 17.6631 20.0152 18.8815 19.6163 20.0426H23.8363ZM25.5884 16.0112C25.7006 21.4826 20.7544 25.6139 16.6231 25.6139H6.40857L0 32H16.513C21.7824 32 26.8397 27.2558 26.8397 21.5968C26.8397 19.9314 26.6388 17.7663 25.5884 16.1244V16.0112ZM73.8617 24.7674C69.5703 24.7674 66.4996 22.1903 66.4996 18.1569C66.4996 14.1745 69.6825 11.526 73.8617 11.526C78.0409 11.526 81.2228 14.1582 81.2228 18.1569C81.2228 22.1893 78.1256 24.7674 73.8617 24.7674ZM147.221 11.832V24.5002H142.94L142.875 23.2234H142.783C142.307 23.6497 141.319 24.7786 138.56 24.7786C135.499 24.7786 132.818 22.12 132.818 18.1539C132.818 14.4743 135.196 11.5373 138.841 11.5373C141.321 11.5373 142.335 12.6295 142.715 12.9793H142.828L142.872 11.832H147.221ZM114.184 11.8371V24.5053H109.902L109.839 23.2265H109.747C109.271 23.6548 108.283 24.7837 105.524 24.7837C102.463 24.7837 99.7815 22.1251 99.7815 18.161C99.7815 14.4794 102.16 11.5424 105.805 11.5424C108.285 11.5424 109.298 12.6356 109.679 12.9844H109.792L109.834 11.8361L114.184 11.8371ZM93.3893 11.8473H97.8051V24.5237H93.3893V11.8473ZM117.027 24.4961V6.63191H121.424V12.7539H121.472C121.783 12.5601 123.207 11.5383 125.296 11.5383C128.722 11.5383 131.24 14.2908 131.24 17.9346C131.24 22.4861 128.45 24.7786 125.27 24.7786C122.866 24.7786 121.644 23.6589 121.344 23.3325H121.272L121.209 24.4961H117.027ZM73.8617 21.5958C75.6515 21.5958 76.7039 20.0283 76.7039 18.1559C76.7039 16.2621 75.7015 14.6916 73.8617 14.6916C71.9393 14.6916 71.0184 16.2621 71.0184 18.1559C71.0184 20.0283 72.0729 21.5958 73.8617 21.5958ZM91.2517 21.0542C91.0365 21.1144 90.443 21.2674 90.034 21.2674C89.1407 21.2674 88.1647 20.8493 88.1647 19.2991V15.0179H90.9345V11.833H88.1647V7.75371H83.757V11.833H81.8306V15.0179H83.757V20.0283C83.757 22.7828 85.0359 24.7593 88.2963 24.7593C89.2427 24.7593 90.1115 24.6318 90.7092 24.5206L91.2517 21.0542ZM41.1427 24.0362C42.3747 24.4084 44.2471 24.7531 46.2326 24.7531C49.9938 24.7531 53.7457 23.4202 53.7457 19.292C53.7457 13.6248 45.9328 14.4091 45.9328 12.1512C45.9328 10.9957 47.1332 10.7459 48.311 10.7459C49.9428 10.7459 52.0089 11.5291 52.4678 11.7157L52.8227 7.81286C51.6826 7.42431 49.9519 7.20402 48.3253 7.20402C44.6132 7.20402 40.95 8.65319 40.95 12.3307C40.95 17.8979 48.7424 16.7373 48.7424 19.6591C48.7424 20.7809 47.6196 21.2093 46.1888 21.2093C44.2226 21.2093 42.3736 20.2251 41.5731 19.8692L41.1427 24.0362ZM137.482 18.0366C137.482 20.1323 138.651 21.4407 140.165 21.4407C141.538 21.4407 142.874 20.1578 142.874 18.21C142.874 16.2458 141.689 14.9037 140.165 14.9037C138.59 14.9037 137.482 16.3121 137.482 18.0366ZM104.446 18.0447C104.446 20.1384 105.615 21.4469 107.129 21.4469C108.502 21.4469 109.838 20.1639 109.838 18.2161C109.838 16.2539 108.653 14.9118 107.129 14.9118C105.554 14.9118 104.446 16.3172 104.446 18.0447ZM65.3747 12.0329C65.0453 11.9411 63.8358 11.525 62.2316 11.525C58.2625 11.525 55.2866 14.0093 55.2866 18.1477C55.2866 21.9089 57.9576 24.7705 62.0552 24.7705C63.7991 24.7705 65.0831 24.3044 65.3747 24.2167L65.1606 20.5239C64.821 20.6769 63.9419 21.1797 62.9292 21.1797C61.1516 21.1797 59.8524 19.9212 59.8524 18.1477C59.8524 16.2876 61.2424 15.0883 62.9802 15.0883C63.9602 15.0883 64.8332 15.5441 65.1606 15.7053L65.3747 12.0329ZM165.996 24.5084H170.39V18.6444H170.438L174.342 24.5084H179.232L174.521 17.7918L179.113 11.8565H174.229L170.438 17.079H170.39V6.64822H165.996V24.5084ZM150.071 24.5063H154.357V17.9632C154.357 16.4293 155.373 15.3799 156.673 15.3799C158.157 15.3799 159 16.3437 159 17.9632V24.5063H163.288V16.8791C163.288 14.0073 161.44 11.5495 158.047 11.5495C155.782 11.5495 154.603 12.7804 154.066 13.2648H153.976L153.932 11.8616H150.07V24.5063H150.071ZM95.6002 5.43055C94.9441 5.43297 94.3155 5.69455 93.8513 6.15834C93.3871 6.62212 93.125 7.25053 93.1221 7.90668C93.1256 8.56248 93.3879 9.19036 93.852 9.65371C94.3161 10.1171 94.9444 10.3784 95.6002 10.3808C96.2554 10.3776 96.8828 10.1159 97.3461 9.65257C97.8094 9.18929 98.0711 8.56186 98.0743 7.90668C98.0716 7.25115 97.8102 6.6232 97.3468 6.15947C96.8835 5.69575 96.2558 5.43377 95.6002 5.43055ZM126.677 18.162C126.677 16.4671 125.712 14.9618 124.03 14.9618C122.548 14.9618 121.357 16.2264 121.357 18.162C121.357 20.0365 122.333 21.3704 124.03 21.3704C125.56 21.3714 126.677 20.0976 126.677 18.162Z" fill="black"></path></svg> 