<?xml version="1.0" encoding="UTF-8"?> <svg xmlns="http://www.w3.org/2000/svg" width="108" height="32" viewBox="0 0 108 32" fill="none"><g clip-path="url(#clip0_1805_21865)"><path d="M19.4084 16.962C19.7588 17.0798 20.1665 17.2549 20.6316 17.4875C21.4471 17.9556 22.1448 18.5959 22.7307 19.4114C23.4314 20.5773 23.7788 21.9756 23.7788 23.6066C23.7788 29.2032 20.396 32 13.6366 32H0.525531C0.175177 32 0 31.8248 0 31.4745V4.54554C0 4.19519 0.175177 4.02001 0.525531 4.02001H14.3403C16.7898 4.02001 18.7681 4.69353 20.2843 6.03152C21.7975 7.37253 22.5586 9.15149 22.5586 11.3654C22.5586 12.649 22.2656 13.7846 21.6857 14.7753C21.0998 15.7689 20.3417 16.4968 19.4084 16.962ZM13.4645 27.977C15.4458 27.977 16.9016 27.6568 17.8348 27.0165C18.7651 26.3762 19.2332 25.2678 19.2332 23.6942C19.2332 22.1206 18.7651 21.0152 17.8348 20.3719C16.9016 19.7316 15.4428 19.4114 13.4645 19.4114H5.24625C4.7781 19.4114 4.54554 19.5866 4.54554 19.937V27.4575C4.54554 27.8078 4.7781 27.983 5.24625 27.983H13.4645V27.977ZM5.24625 8.04304C4.89589 8.04304 4.72072 8.21822 4.72072 8.56857V14.8629C4.72072 15.2132 4.89589 15.3884 5.24625 15.3884H13.2893C16.3186 15.3884 17.8348 14.1652 17.8348 11.7157C17.8348 9.26626 16.3186 8.04304 13.2893 8.04304H5.24625ZM47.7387 16.962C48.0891 17.0798 48.4395 17.2549 48.7868 17.4875C49.717 17.9556 50.4177 18.5959 50.8859 19.4114C51.7014 20.5773 52.1091 21.9756 52.1091 23.6066C52.1091 29.2032 48.7264 32 41.967 32H28.8529C28.5025 32 28.3273 31.8248 28.3273 31.4745V4.54554C28.3273 4.19519 28.5025 4.02001 28.8529 4.02001H42.6677C44.9993 4.02001 46.9504 4.69353 48.527 6.03152C50.1006 7.37253 50.8889 9.15149 50.8889 11.3654C50.8889 12.649 50.5959 13.7846 50.016 14.7753C49.4271 15.7689 48.669 16.4968 47.7387 16.962ZM33.3984 8.04304C33.048 8.04304 32.8729 8.21822 32.8729 8.56857V14.8629C32.8729 15.2132 33.048 15.3884 33.3984 15.3884H41.6166C44.646 15.3884 46.1622 14.1652 46.1622 11.7157C46.1622 9.26626 44.646 8.04304 41.6166 8.04304H33.3984ZM41.7918 27.977C43.7731 27.977 45.2289 27.6568 46.1622 27.0165C47.0924 26.3762 47.5605 25.2678 47.5605 23.6942C47.5605 22.1206 47.0924 21.0152 46.1622 20.3719C45.2289 19.7316 43.7701 19.4114 41.7918 19.4114H33.3984C33.048 19.4114 32.8729 19.5866 32.8729 19.937V27.4575C32.8729 27.8078 33.048 27.983 33.3984 27.983H41.7918V27.977ZM77.1141 4.37036C77.2289 4.1378 77.3467 4.02001 77.4645 4.02001H82.01C82.1248 4.02001 82.2426 4.08042 82.3604 4.19519C82.4751 4.31298 82.4751 4.43077 82.3604 4.54554L67.8479 31.8248C67.7301 31.9426 67.5851 32 67.4099 32C67.2347 32 67.0867 31.9426 66.972 31.8248L52.4595 4.54554C52.3417 4.43077 52.3115 4.31298 52.3719 4.19519C52.4293 4.08042 52.5742 4.02001 52.8098 4.02001H57.1802C57.4127 4.02001 57.5879 4.1378 57.7057 4.37036L66.972 21.8579C66.972 21.9756 67.0867 22.033 67.3223 22.033C67.5549 22.033 67.7301 21.9756 67.8479 21.8579L77.1141 4.37036ZM82.3604 27.6296C82.2426 27.8652 82.0674 27.98 81.8348 27.98H77.2893C77.1715 27.98 77.0839 27.9226 77.0265 27.8048C76.9661 27.69 76.9389 27.5723 76.9389 27.4545L91.4545 0.175177C91.5692 0.0604059 91.7444 0 91.98 0C92.2126 0 92.3877 0.0604059 92.5055 0.175177L107.015 27.4545C107.015 27.5723 106.985 27.69 106.927 27.8048C106.867 27.9226 106.779 27.98 106.665 27.98H102.119C101.884 27.98 101.708 27.8652 101.594 27.6296L92.4995 10.1421C92.3817 9.90958 92.2065 9.79179 91.974 9.79179C91.7384 9.79179 91.5632 9.90958 91.4484 10.1421L82.3604 27.6296Z" fill="black"></path></g><defs><clipPath id="clip0_1805_21865"><rect width="107.015" height="32" fill="white"></rect></clipPath></defs></svg> 